<svg xmlns="http://www.w3.org/2000/svg" viewBox="0 0 1000 580" font-family="monospace" font-size="13">
  <defs>
    <marker id="ar" viewBox="0 0 10 6" refX="10" refY="3" markerWidth="10" markerHeight="6" orient="auto-start-reverse">
      <path d="M0,0 L10,3 L0,6 z" fill="#818cf8"/>
    </marker>
    <marker id="ar-rose" viewBox="0 0 10 6" refX="10" refY="3" markerWidth="10" markerHeight="6" orient="auto-start-reverse">
      <path d="M0,0 L10,3 L0,6 z" fill="#fb7185"/>
    </marker>
    <marker id="ar-teal" viewBox="0 0 10 6" refX="10" refY="3" markerWidth="10" markerHeight="6" orient="auto-start-reverse">
      <path d="M0,0 L10,3 L0,6 z" fill="#2dd4bf"/>
    </marker>
  </defs>

  <!-- Background -->
  <rect width="1000" height="580" fill="#0f1117" rx="8"/>

  <!-- Title -->
  <text x="500" y="35" fill="#e2e8f0" font-size="20" font-weight="bold" text-anchor="middle">How Martha Runs: Plugin Architecture</text>
  <text x="500" y="55" fill="#64748b" font-size="11" text-anchor="middle">Standard Hecate plugin: daemon + frontend + CLI, connected via Unix socket</text>

  <!-- ===== User Layer ===== -->
  <rect x="300" y="75" width="400" height="50" rx="8" fill="#1e1b3a" stroke="#818cf8" stroke-width="2"/>
  <text x="500" y="98" fill="#c7d2fe" font-size="14" font-weight="bold" text-anchor="middle">You (hecate-web desktop app)</text>
  <text x="500" y="114" fill="#818cf8" font-size="10" text-anchor="middle">Tauri + SvelteKit</text>

  <!-- Arrow down to Martha frontend -->
  <line x1="500" y1="125" x2="500" y2="155" stroke="#818cf8" stroke-width="2" marker-end="url(#ar)"/>

  <!-- ===== Martha Frontend ===== -->
  <rect x="200" y="155" width="600" height="90" rx="6" fill="#1e1b3a" fill-opacity="0.6" stroke="#6366f1" stroke-width="1.5"/>
  <text x="500" y="178" fill="#a5b4fc" font-size="13" font-weight="bold" text-anchor="middle">MarthaStudio.svelte (ES Module loaded at runtime)</text>

  <!-- Frontend slices -->
  <rect x="215" y="195" width="110" height="30" rx="3" fill="#312e81" stroke="#818cf8" stroke-width="1"/>
  <text x="270" y="215" fill="#c7d2fe" font-size="9" text-anchor="middle">compose_vision/</text>

  <rect x="335" y="195" width="110" height="30" rx="3" fill="#312e81" stroke="#818cf8" stroke-width="1"/>
  <text x="390" y="215" fill="#c7d2fe" font-size="9" text-anchor="middle">brainstorm_*/</text>

  <rect x="455" y="195" width="110" height="30" rx="3" fill="#052e16" stroke="#22c55e" stroke-width="1"/>
  <text x="510" y="215" fill="#86efac" font-size="9" text-anchor="middle">design_div/</text>

  <rect x="575" y="195" width="110" height="30" rx="3" fill="#052e16" stroke="#22c55e" stroke-width="1"/>
  <text x="630" y="215" fill="#86efac" font-size="9" text-anchor="middle">plan_div/</text>

  <rect x="695" y="195" width="95" height="30" rx="3" fill="#1f2937" stroke="#6b7280" stroke-width="1"/>
  <text x="742" y="215" fill="#d1d5db" font-size="9" text-anchor="middle">+ 8 more</text>

  <!-- Arrow down through socket -->
  <line x1="500" y1="245" x2="500" y2="275" stroke="#fb7185" stroke-width="2" marker-end="url(#ar-rose)"/>

  <!-- Unix Socket -->
  <rect x="440" y="275" width="120" height="30" rx="4" fill="#292524" stroke="#a8a29e" stroke-width="1.5"/>
  <text x="500" y="295" fill="#e7e5e4" font-size="10" font-weight="bold" text-anchor="middle">api.sock</text>

  <!-- Arrow down to daemon -->
  <line x1="500" y1="305" x2="500" y2="330" stroke="#fb7185" stroke-width="2" marker-end="url(#ar-rose)"/>

  <!-- ===== Martha Daemon ===== -->
  <rect x="60" y="330" width="540" height="230" rx="6" fill="#1a0a0e" fill-opacity="0.7" stroke="#f43f5e" stroke-width="2"/>
  <text x="330" y="355" fill="#fda4af" font-size="14" font-weight="bold" text-anchor="middle">hecate-marthad (Erlang/OTP Daemon)</text>

  <!-- CMD Department -->
  <rect x="80" y="370" width="250" height="80" rx="4" fill="#3b0a1e" stroke="#f43f5e" stroke-width="1"/>
  <text x="205" y="390" fill="#fda4af" font-size="11" font-weight="bold" text-anchor="middle">CMD Department</text>
  <text x="205" y="410" fill="#fecdd3" font-size="10" text-anchor="middle">guide_venture_lifecycle</text>
  <text x="205" y="428" fill="#fecdd3" font-size="10" text-anchor="middle">guide_division_alc</text>
  <text x="205" y="445" fill="#fb7185" font-size="9" text-anchor="middle">commands, handlers, aggregates</text>

  <!-- QRY Department -->
  <rect x="340" y="370" width="250" height="80" rx="4" fill="#3b0a1e" stroke="#fb923c" stroke-width="1"/>
  <text x="465" y="390" fill="#fed7aa" font-size="11" font-weight="bold" text-anchor="middle">QRY+PRJ Department</text>
  <text x="465" y="410" fill="#fed7aa" font-size="10" text-anchor="middle">query_venture_lifecycle</text>
  <text x="465" y="428" fill="#fed7aa" font-size="10" text-anchor="middle">query_division_alc</text>
  <text x="465" y="445" fill="#fdba74" font-size="9" text-anchor="middle">projections, read models</text>

  <!-- Event Store -->
  <rect x="80" y="465" width="250" height="40" rx="4" fill="#1a0a0e" stroke="#2dd4bf" stroke-width="1.5"/>
  <text x="205" y="490" fill="#5eead4" font-size="11" font-weight="bold" text-anchor="middle">martha_store (ReckonDB)</text>

  <!-- SQLite -->
  <rect x="340" y="465" width="250" height="40" rx="4" fill="#1a0a0e" stroke="#fbbf24" stroke-width="1"/>
  <text x="465" y="490" fill="#fde68a" font-size="11" text-anchor="middle">SQLite Read Models</text>

  <!-- Arrows from CMD to store and QRY to SQLite -->
  <line x1="205" y1="450" x2="205" y2="465" stroke="#2dd4bf" stroke-width="1.5" marker-end="url(#ar-teal)"/>
  <line x1="465" y1="450" x2="465" y2="465" stroke="#fbbf24" stroke-width="1"/>

  <!-- ===== Hecate Daemon (right side) ===== -->
  <rect x="640" y="330" width="340" height="230" rx="6" fill="#172554" fill-opacity="0.5" stroke="#3b82f6" stroke-width="2"/>
  <text x="810" y="355" fill="#93c5fd" font-size="14" font-weight="bold" text-anchor="middle">hecate-daemon</text>
  <text x="810" y="372" fill="#60a5fa" font-size="10" text-anchor="middle">The host platform</text>

  <!-- LLM -->
  <rect x="660" y="390" width="150" height="45" rx="4" fill="#172554" stroke="#38bdf8" stroke-width="1"/>
  <text x="735" y="410" fill="#bae6fd" font-size="11" font-weight="bold" text-anchor="middle">serve_llm</text>
  <text x="735" y="427" fill="#38bdf8" font-size="9" text-anchor="middle">Local LLMs (Ollama)</text>

  <!-- Mesh -->
  <rect x="820" y="390" width="150" height="45" rx="4" fill="#172554" stroke="#38bdf8" stroke-width="1"/>
  <text x="895" y="410" fill="#bae6fd" font-size="11" font-weight="bold" text-anchor="middle">hecate_mesh</text>
  <text x="895" y="427" fill="#38bdf8" font-size="9" text-anchor="middle">Macula QUIC Mesh</text>

  <!-- Agents knowledge -->
  <rect x="660" y="448" width="310" height="40" rx="4" fill="#172554" stroke="#a78bfa" stroke-width="1"/>
  <text x="815" y="472" fill="#c4b5fd" font-size="11" text-anchor="middle">hecate-corpus (AI Knowledge Base)</text>

  <!-- Plugin System -->
  <rect x="660" y="500" width="310" height="40" rx="4" fill="#172554" stroke="#6b7280" stroke-width="1"/>
  <text x="815" y="520" fill="#d1d5db" font-size="10" text-anchor="middle">Plugin Registry + Socket Discovery</text>
  <text x="815" y="534" fill="#9ca3af" font-size="9" text-anchor="middle">Auto-discovers Martha at ~/.hecate/hecate-marthad/</text>

  <!-- BEAM connection between daemons -->
  <line x1="590" y1="415" x2="660" y2="415" stroke="#a78bfa" stroke-width="2.5" stroke-dasharray="6,3"/>
  <text x="625" y="408" fill="#c4b5fd" font-size="8" text-anchor="middle">pg</text>
  <text x="625" y="430" fill="#a78bfa" font-size="7" text-anchor="middle">BEAM</text>

  <!-- Everything local note -->
  <rect x="60" y="75" width="215" height="50" rx="4" fill="#052e16" stroke="#22c55e" stroke-width="1"/>
  <text x="167" y="96" fill="#86efac" font-size="11" font-weight="bold" text-anchor="middle">Everything Local</text>
  <text x="167" y="114" fill="#4ade80" font-size="9" text-anchor="middle">Your data never leaves your machine</text>

  <!-- Runs in container note -->
  <rect x="725" y="75" width="255" height="50" rx="4" fill="#1e1e2e" stroke="#475569" stroke-width="1"/>
  <text x="852" y="96" fill="#e2e8f0" font-size="11" font-weight="bold" text-anchor="middle">Runs as a Container</text>
  <text x="852" y="114" fill="#94a3b8" font-size="9" text-anchor="middle">Zero-touch install via hecate appstore</text>
</svg>